#tb 0: 1/1000
0,          0,          0,        0,      990, 7cbd8c6b2fb35c0c3063cb7a379944c9
0,         33,         33,        0,      990, 14062e74b98bed1ca982f408bc14326c
0,         66,         66,        0,      990, f6d6868d849aa74b27df1c5f40c7096e
0,        100,        100,        0,      990, 719c8d7e3769466ee8e3dca3f4747a0e
0,        133,        133,        0,      990, a72e1a7a4c82ec09ea77f87b0e6f25aa
0,        166,        166,        0,      990, a5163d142b429afa155cc2f1401a0b8a
0,        200,        200,        0,      990, 27762d813dd1f80d6aaed5f197124fa5
0,        233,        233,        0,      990, 02e94454660f3528abbde8f50e94288f
0,        266,        266,        0,      990, 1d57dcfa57a55d96f14cfe471aac2e0b
0,        300,        300,        0,      990, 7804477923c0cd067bd09ebca3529775
